<svg id="icon-noimage" xmlns="http://www.w3.org/2000/svg" xml:space="preserve" viewBox="0 0 120 120">
  <defs>
    <clipPath id="b" clipPathUnits="userSpaceOnUse">
      <path fill="none" d="M19.3 58.6v35.9h75c0-.2-.2-.4-.4-.6L92 92a396.2 396.2 0 0 1-15.4-14.8L72 72c-.7-.9-.7-1.7-.4-2.2-.3-.3-.1-.6.1-.6.1 0 .3 0 .4.2h.5c.2 0 .5 0 .7.2h.2c.1-.1.3 0 .3.1l.3.5.9 1 .3.4.4.3.2.2 1.7 1.7a414.8 414.8 0 0 1 16.2 16.3l1 .9h.1l2.1 2 1.4 1.2.1.2h2.3V58.6z"/>
    </clipPath>
    <clipPath id="a" clipPathUnits="userSpaceOnUse">
      <path fill="none" d="M8.4 8.4v103.2h102l-.2-.2-2.5-2.7-3.4-3.8-2-2.3c-1-1.1-.8-2.2 0-2.5 0-.7.5-1 1-1 .6 0 1.2.3 1.6 1.1a22.5 22.5 0 0 0 4.6 4.6l2 1.4h.1V8.5H12.2c.4.1.8.4 1.1.8h.1c.2 0 .4.1.5.3h.2c.2 0 .4 0 .6.3l1.5 1.7a79 79 0 0 0 4.9 4.5c.6.5.1 1-.4.7v.2l3.8 3.8 1.5 1.7.3.4c1.6 2.2-.7 3.8-2.2 1.6l-.2-.2-1.4-1.6-3.7-3.8c-1.7-1.7-3.5-3.4-5.1-5.2-.9-.8-1.7-1.7-2.5-2.7-1-1.2-.7-2.2 0-2.5zm63.3 61h.4v.1h.5l.6.1v-.1l.2.2h.1v-.2h.2l.4.5h.1l.9.4.6.3h.1l.4.1h.2v.1h-.2l-.4-.1h-.1l-.6-.3a19.1 19.1 0 0 0-.7-.2l.1.2v.1l.2.2.1.1.2.2.2.2h.1c.1 0 0 .1 0 .1l.4.3.3.2s0 .1 0 0h-.2v.2l.1.1 1.7 1.7a414.8 414.8 0 0 1 16.2 16.3l1 .9h.1l2.1 2 1.4 1.2.6.6.3.3c1.8 2-4 0-2 1.8l-.8-.7-.4-.4c-.3 0-.7 0-1-.5A143.1 143.1 0 0 1 94 94l-2-1.9a396.1 396.1 0 0 1-15.4-14.8L72 72c-.7-.9-.7-1.7-.4-2.2-.3-.3-.1-.6.1-.6zm2.2.6zm0 0 .2.3-.1-.2zm.3.1.1.2v-.1h-.1z"/>
    </clipPath>
  </defs>
  <path fill="none" stroke="lightblue" stroke-linejoin="round" stroke-width="5.4" d="M108.9 98V20.9c-.5-6.5-7-10.8-13.2-9.9H21c-6.5.6-10.8 7.1-9.9 13.3V99c.5 6.5 7 10.6 13.2 9.8H99c5.5-.5 9.8-5.6 9.9-10.9z" clip-path="url(#a)" transform="matrix(.96317 0 0 .96778 2.2 2)"/>
  <path fill="none" stroke="lightblue" stroke-linecap="round" stroke-width="7.5" d="m5.7 9.6 103 104.3"/>
  <path fill="lightblue" stroke="lightblue" stroke-linejoin="round" stroke-width="5.3" d="M79 68.9 65.5 84.3l-19-23L22 91.9h76z" clip-path="url(#b)" transform="matrix(.96317 0 0 .96778 2.2 2)"/>
  <path fill="lightblue" d="M94.8 37.8c.6 13.2-21.4 14-20.8 0 .2-14.2 20.9-13.2 20.8 0z"/>
</svg>
